<svg xmlns="http://www.w3.org/2000/svg" width="63.059" height="70.219" viewBox="0 0 63.059 70.219">
  <g id="_020---Female-User" data-name="020---Female-User" transform="translate(-0.012)">
    <g id="Icons" transform="translate(1.169 1.171)">
      <path id="Shape" d="M53.707,57.35c-4.9,0,3.474,0-48.757.012C7.174,48.3,5.02,33.211,6.039,19.9,6.683,11.426,9.89,8.756,12.594,8.066a7.166,7.166,0,0,1,3.98.129S17.652.667,30.1.047C30.634.012,31.208,0,31.793,0,63.345,0,46.534,35.283,53.707,57.35Z" transform="translate(0.845 0)" fill="#c7c7c7"/>
      <path id="Shape-2" data-name="Shape" d="M4.95,57.355c2.224-9.061.07-24.15,1.089-37.461C6.683,11.419,9.89,8.75,12.594,8.059c.293.07.468.129.468.129s.012-.082.047-.246a7.217,7.217,0,0,1,3.465.246S17.652.66,30.1.04c29.066,1.345,13.076,35.679,20.1,57.3Z" transform="translate(0.845 0.007)" fill="#fff"/>
      <path id="Shape-3" data-name="Shape" d="M60.733,55.561a30.19,30.19,0,0,1-9.049,3.489C35.4,63.147,9.892,61.742.012,55.561H0s1.03-4.706,5.713-4.706c8.452,0,13.252-3.676,15.254-5.713a2.214,2.214,0,0,0,.644-1.463,17.974,17.974,0,0,0-.7-5.549c2.891,3.652,7.223,8.054,11.32,6.415,2.794-1.066,5.6-4.07,7.457-6.415a18,18,0,0,0-.7,5.467,2.224,2.224,0,0,0,.667,1.51c1.99,2.025,6.848,5.748,15.371,5.748,4.683,0,5.713,4.706,5.713,4.706Z" transform="translate(0 6.507)" fill="#c7c7c7"/>
      <g id="Group_4" data-name="Group 4" transform="translate(0 15.218)">
        <path id="Shape-4" data-name="Shape" d="M57.221,55.561a30.19,30.19,0,0,1-9.049,3.489,85.348,85.348,0,0,1-39.123,0C2.245,57.348.2,55.561,0,55.561c0,0,1.03-4.706,5.713-4.706,8.452,0,13.252-3.676,15.254-5.713a2.214,2.214,0,0,0,.644-1.463,17.974,17.974,0,0,0-.7-5.549c2.891,3.652,7.223,8.054,11.32,6.415a11.874,11.874,0,0,0,3.243-2,2.991,2.991,0,0,0,.667,2.564c1.99,2.025,6.848,5.748,15.371,5.748,4.683,0,5.713,4.706,5.713,4.706Z" transform="translate(0 -8.712)" fill="#fff"/>
        <path id="Shape-5" data-name="Shape" d="M43.616,48.748c-.044.221-3.417,1.908-3.5,10.126a73.833,73.833,0,0,1-9.026.948c5.657-3.183,6.373-13.277,6.532-13.533A20.182,20.182,0,0,0,43.616,48.748Z" transform="translate(5.305 -7.319)" fill="#fff"/>
        <path id="Shape-6" data-name="Shape" d="M22.5,59.818a89.437,89.437,0,0,1-9.026-.948c-.082-8.077-3.442-9.974-3.5-10.091a20.084,20.084,0,0,0,6.017-2.458l.035.059S16.9,56.669,22.5,59.818Z" transform="translate(1.701 -7.314)" fill="#fff"/>
        <path id="Shape-7" data-name="Shape" d="M41.569,30.232c.761,3.723-.339,7.059-3.7,11.449-1.627,2.131-4.694,5.853-8.031,7.153-4.378,1.756-9.021-3.395-11.894-7.153-3.36-4.39-4.46-7.726-3.7-11.449.749-3.594.117-3.793-.246-6.977A33.815,33.815,0,0,0,18.542,13s7.445,9.576,23.354,9.459c-.328,3.968-1.136,3.91-.328,7.773Z" transform="translate(2.389 -13)" fill="#fff"/>
        <path id="Shape-8" data-name="Shape" d="M41.569,30.232c.761,3.723-.339,7.059-3.7,11.449-1.627,2.131-4.694,5.853-8.031,7.153-4.378,1.756-9.021-3.395-11.894-7.153-3.36-4.39-4.46-7.726-3.7-11.449.749-3.594.117-3.793-.246-6.977A33.815,33.815,0,0,0,18.542,13s7.445,9.576,23.354,9.459c-.328,3.968-1.136,3.91-.328,7.773Z" transform="translate(2.389 -13)" fill="#fff"/>
      </g>
    </g>
    <g id="Icons_copy_2" transform="translate(1.169 1.171)">
      <path id="Shape-9" data-name="Shape" d="M18.385,8.195S19.462.667,31.906.047h.007C31.328.019,30.72,0,30.092,0c-.585,0-1.159.012-1.7.047C17.224.6,15.214,6.72,14.919,7.97c.18-.03.351-.071.544-.089a7.439,7.439,0,0,1,2.922.314Z" transform="translate(2.546 0)" fill="#fff"/>
      <path id="Shape-10" data-name="Shape" d="M13.431,65.354a98.929,98.929,0,0,0,18.82,1.367,94.829,94.829,0,0,1-15.309-1.367c-4.255-.752-9.733-2.131-13.4-4.422l-.028-.009s1.03-4.706,5.713-4.706h.082c2.224-9.061.07-24.149,1.089-37.461.387-5.109,1.942-10.694,6.572-11.84a7.834,7.834,0,0,0-2.47-.18c-5.446.517-7.2,6.545-7.609,12.02C5.87,32.065,8.024,47.154,5.8,56.217H5.717C1.03,56.217,0,60.923,0,60.923l.028.009c3.67,2.291,9.147,3.67,13.4,4.422Z" transform="translate(0 1.145)" fill="#fff"/>
    </g>
    <path id="Shape-11" data-name="Shape" d="M8.666,9.834l1.926,1.332c-1.578,2.266-2.1,5.349-2.374,8.317L5.883,19.3a28.436,28.436,0,0,1,.768-4.827A15.144,15.144,0,0,1,8.666,9.834Z" transform="translate(1.002 1.678)" fill="#fff"/>
    <g id="Group_5" data-name="Group 5" transform="translate(0.012 0)">
      <path id="Shape-12" data-name="Shape" d="M.559,64.231c8.717,5.452,26.471,6.422,36.97,5.84h.025c.027,0,.055-.008.082-.011,7.414-.418,18.654-1.933,24.887-5.833a1.171,1.171,0,0,0,.522-1.243,7.126,7.126,0,0,0-6.439-5.605c-3.27-11.238-.693-29.432-1.734-38.781C53.44,5.736,46.941,0,33.806,0,22.092,0,18.7,5.459,17.768,7.971a7.909,7.909,0,0,0-8.1,3.541,1.089,1.089,0,0,0,.351,1.662,1.288,1.288,0,0,0,1.571-.33A5.778,5.778,0,0,1,14.5,10.5a6.024,6.024,0,0,1,3.678-.041l.008-.021a1.158,1.158,0,0,0,.234.084,1.171,1.171,0,0,0,1.325-.993c.016-.074,1.181-7.191,14.065-7.191,29.352,0,14.257,31.8,20.334,54.933a19.378,19.378,0,0,1-12.483-5.3,1.113,1.113,0,0,1-.341-.729,16.877,16.877,0,0,1,.6-4.907c3.143-4,5.369-7.986,4.352-12.951-.681-3.261-.131-3.292.246-6.408.468-.015.937-.02,1.414-.052a1.173,1.173,0,0,0-.156-2.341C31.083,25.69,23.1,15.764,23.023,15.666a1.171,1.171,0,0,0-2.059.434c-.977,3.834-3.423,9.849-6.591,12.225a1.171,1.171,0,0,0,.7,2.107,1.158,1.158,0,0,0,.7-.234,10.721,10.721,0,0,0,1.025-.891,8.555,8.555,0,0,1-.146,4.075c-1.014,4.959,1.215,8.953,4.352,12.944a16.871,16.871,0,0,1,.6,4.983A1.062,1.062,0,0,1,21.3,52C19.461,53.871,15.42,56.92,8.4,57.314c1.756-9.4-.145-23.61.819-36.158a1.171,1.171,0,0,0-2.334-.178C5.9,33.871,7.873,48.411,6,57.412A7.155,7.155,0,0,0,.04,62.987a1.171,1.171,0,0,0,.519,1.244Zm16.921,2.7c-.2-4.448-1.392-7.045-2.441-8.482a21.54,21.54,0,0,0,2.913-1.206c.4,2.447,1.456,7.011,4.025,10.209C20.44,67.312,18.934,67.142,17.479,66.934Zm23.466.535c2.6-3.23,3.651-7.854,4.043-10.286A22.4,22.4,0,0,0,47.925,58.4c-1.054,1.431-2.273,4.043-2.476,8.553-1.457.206-2.968.373-4.5.513Zm19.55-4.762a44,44,0,0,1-12.687,3.881c.318-4.877,1.99-6.89,2.629-7.492a27.978,27.978,0,0,0,5.753.608,4.576,4.576,0,0,1,4.3,3ZM18.948,33.86c.762-3.657.192-4.187-.173-6.919a33.609,33.609,0,0,0,3.869-8.255c2.842,2.73,9.86,8.018,21.508,8.3-.362,2.692-.922,3.278-.173,6.867.682,3.338-.327,6.38-3.483,10.5-2.77,3.629-5.3,5.906-7.534,6.776a4.069,4.069,0,0,1-3,0c-2.224-.866-4.756-3.144-7.527-6.773-3.155-4.127-4.165-7.169-3.484-10.5Zm4.018,19.784c1.1-1.119,1.054-2.393.953-3.987,5.459,5.442,9.624,5.449,15.09,0-.1,1.612-.146,2.81.977,3.95a17.961,17.961,0,0,0,2.82,2.306c-.267,2.054-1.491,9.3-5.626,11.833a105.9,105.9,0,0,1-11.437-.009c-4.088-2.508-5.328-9.626-5.61-11.757a18.292,18.292,0,0,0,2.833-2.334ZM6.949,59.7a27.185,27.185,0,0,0,5.579-.574c.668.643,2.277,2.669,2.592,7.435A43.48,43.48,0,0,1,2.594,62.708,4.522,4.522,0,0,1,6.949,59.7Z" transform="translate(-0.012 0)" fill="#656565"/>
      <path id="Shape-13" data-name="Shape" d="M7.7,15.391a1.171,1.171,0,1,1,1.171-1.171A1.171,1.171,0,0,1,7.7,15.391Z" transform="translate(1.1 2.227)" fill="#656565"/>
    </g>
  </g>
</svg>
