<svg id="Group_5" data-name="Group 5" xmlns="http://www.w3.org/2000/svg" width="63.059" height="70.219" viewBox="0 0 63.059 70.219">
  <path id="Shape" d="M.559,64.231c8.717,5.452,26.471,6.422,36.97,5.84h.025c.027,0,.055-.008.082-.011,7.414-.418,18.654-1.933,24.887-5.833a1.171,1.171,0,0,0,.522-1.243,7.126,7.126,0,0,0-6.439-5.605c-3.27-11.238-.693-29.432-1.734-38.781C53.44,5.736,46.941,0,33.806,0,22.092,0,18.7,5.459,17.768,7.971a7.909,7.909,0,0,0-8.1,3.541,1.089,1.089,0,0,0,.351,1.662,1.288,1.288,0,0,0,1.571-.33A5.778,5.778,0,0,1,14.5,10.5a6.024,6.024,0,0,1,3.678-.041l.008-.021a1.158,1.158,0,0,0,.234.084,1.171,1.171,0,0,0,1.325-.993c.016-.074,1.181-7.191,14.065-7.191,29.352,0,14.257,31.8,20.334,54.933a19.378,19.378,0,0,1-12.483-5.3,1.113,1.113,0,0,1-.341-.729,16.877,16.877,0,0,1,.6-4.907c3.143-4,5.369-7.986,4.352-12.951-.681-3.261-.131-3.292.246-6.408.468-.015.937-.02,1.414-.052a1.173,1.173,0,0,0-.156-2.341C31.083,25.69,23.1,15.764,23.023,15.666a1.171,1.171,0,0,0-2.059.434c-.977,3.834-3.423,9.849-6.591,12.225a1.171,1.171,0,0,0,.7,2.107,1.158,1.158,0,0,0,.7-.234,10.721,10.721,0,0,0,1.025-.891,8.555,8.555,0,0,1-.146,4.075c-1.014,4.959,1.215,8.953,4.352,12.944a16.871,16.871,0,0,1,.6,4.983A1.062,1.062,0,0,1,21.3,52C19.461,53.871,15.42,56.92,8.4,57.314c1.756-9.4-.145-23.61.819-36.158a1.171,1.171,0,0,0-2.334-.178C5.9,33.871,7.873,48.411,6,57.412A7.155,7.155,0,0,0,.04,62.987a1.171,1.171,0,0,0,.519,1.244Zm16.921,2.7c-.2-4.448-1.392-7.045-2.441-8.482a21.54,21.54,0,0,0,2.913-1.206c.4,2.447,1.456,7.011,4.025,10.209C20.44,67.312,18.934,67.142,17.479,66.934Zm23.466.535c2.6-3.23,3.651-7.854,4.043-10.286A22.4,22.4,0,0,0,47.925,58.4c-1.054,1.431-2.273,4.043-2.476,8.553-1.457.206-2.968.373-4.5.513Zm19.55-4.762a44,44,0,0,1-12.687,3.881c.318-4.877,1.99-6.89,2.629-7.492a27.978,27.978,0,0,0,5.753.608,4.576,4.576,0,0,1,4.3,3ZM18.948,33.86c.762-3.657.192-4.187-.173-6.919a33.609,33.609,0,0,0,3.869-8.255c2.842,2.73,9.86,8.018,21.508,8.3-.362,2.692-.922,3.278-.173,6.867.682,3.338-.327,6.38-3.483,10.5-2.77,3.629-5.3,5.906-7.534,6.776a4.069,4.069,0,0,1-3,0c-2.224-.866-4.756-3.144-7.527-6.773-3.155-4.127-4.165-7.169-3.484-10.5Zm4.018,19.784c1.1-1.119,1.054-2.393.953-3.987,5.459,5.442,9.624,5.449,15.09,0-.1,1.612-.146,2.81.977,3.95a17.961,17.961,0,0,0,2.82,2.306c-.267,2.054-1.491,9.3-5.626,11.833a105.9,105.9,0,0,1-11.437-.009c-4.088-2.508-5.328-9.626-5.61-11.757a18.292,18.292,0,0,0,2.833-2.334ZM6.949,59.7a27.185,27.185,0,0,0,5.579-.574c.668.643,2.277,2.669,2.592,7.435A43.48,43.48,0,0,1,2.594,62.708,4.522,4.522,0,0,1,6.949,59.7Z" transform="translate(-0.012 0)" fill="#656565"/>
  <path id="Shape-2" data-name="Shape" d="M7.7,15.391a1.171,1.171,0,1,1,1.171-1.171A1.171,1.171,0,0,1,7.7,15.391Z" transform="translate(1.1 2.227)" fill="#656565"/>
</svg>
