<svg xmlns="http://www.w3.org/2000/svg" width="63.069" height="70.229" viewBox="0 0 63.069 70.229">
  <g id="_005---Male-User" transform="translate(-0.07 0)">
    <g id="Icons" transform="translate(1.241 1.171)">
      <path id="Shape" d="M60.8,55.875c-12.658,7.92-48.6,7.593-60.727,0,4.575-2.287,7.813-4.793,11.5-5.445a11.7,11.7,0,0,0,3.5-1.358,45.082,45.082,0,0,0,6-4.93V36.32c3.4,3.419,3.595,6.651,7.377,6.651h3.981c3.767,0,3.981-3.237,7.377-6.651v7.822a45.082,45.082,0,0,0,6,4.93,11.7,11.7,0,0,0,3.5,1.358C53.011,51.087,56.078,53.517,60.8,55.875Z" transform="translate(-0.07 6.21)" fill="#673ab7"/>
      <path id="Shape-2" d="M57.284,55.875c-6.909,4.321-20.3,5.689-28.607,5.82-8.354-.132-21.73-1.522-28.607-5.82,1.03-.515,4.143-2.225,5.562-3.033,7.508-4.368,6.472-.084,15.433-8.7V36.32c3.4,3.419,3.595,6.651,7.377,6.651h3.981a4.392,4.392,0,0,0,3.864-2.1v2.248a2.342,2.342,0,0,0,.749,1.721c8.617,7.963,7.083,3.571,14.684,8,1.241.71,4.433,2.468,5.562,3.033Z" transform="translate(-0.07 6.21)" fill="#fff"/>
      <path id="Shape-3" d="M55.112,53.942C49.581,57.392,39.8,58.905,33.32,59.433c4.841-1.5,7.132-6.84,7.74-11.8a10.773,10.773,0,0,0,2.553.867C47.326,49.153,50.393,51.583,55.112,53.942Z" transform="translate(5.615 8.144)" fill="#673ab7"/>
      <g id="Group_2" transform="translate(0 0)">
        <path id="Shape-4" d="M51.6,55.09a13.233,13.233,0,0,1-1.218.679,69.7,69.7,0,0,1-17.061,3.3c4.6-1.429,6.511-6.1,7.283-9.321C43.961,50.483,47.214,52.9,51.6,55.09Z" transform="translate(5.615 8.506)" fill="#fff"/>
        <path id="Shape-5" d="M21.862,59.433C15.391,58.907,5.578,57.388.07,53.942c1.03-.515,4.143-2.225,5.562-3.033,5.142-2.993,5.322-1.786,8.49-3.279C14.4,50.019,15.8,57.548,21.862,59.433Z" transform="translate(-0.07 8.144)" fill="#fff"/>
        <path id="Shape-6" d="M47.519,14.052c0,5.152-1.85,7.986-3.22,9.391a2.459,2.459,0,0,0-1.593.761c.09-.948.129-2.56.129-3.513-.316-3.454-1.335-8.981-4.59-8.981-4.765,0-4.7,1.171-9.462,1.171-4.707,0-4.752-1.171-9.462-1.171-3.3,0-4.306,5.738-4.59,9.028,0,.787.039,2.749.141,3.5a2.273,2.273,0,0,0-.761-.574C10.846,18.5,8.642,10.608,10.27,4.7a8.548,8.548,0,0,1,.948-2.354,4.008,4.008,0,0,0,1.733,2h.012a3.864,3.864,0,0,0,.7.316,5.636,5.636,0,0,0,2.646.176c3.642-.521,4.45-2.81,3.1-4.836C23.058.087,31.09.285,34.638,1.171c4.684,1.171,7.026,3.513,7.026,5.855,0,0,5.855-1.171,5.855,7.026Z" transform="translate(1.58 0)" fill="#fff"/>
      </g>
      <path id="Shape-7" d="M40.249,7.026c0-2.342-2.342-4.684-7.026-5.855C29.675.285,21.643.087,18,0c.022.033.032.067.053.1A71.006,71.006,0,0,1,29.71,1.171c4.684,1.171,7.026,3.513,7.026,5.855,0,0,5.855-1.171,5.855,7.026a15.51,15.51,0,0,1-1.2,6.323,32.606,32.606,0,0,1-.1,3.827,2.459,2.459,0,0,1,1.593-.761c1.37-1.4,3.22-4.237,3.22-9.389C46.1,5.855,40.249,7.026,40.249,7.026Z" transform="translate(2.996 0)" fill="#673ab7"/>
      <path id="Shape-8" d="M14.672,20.836c.293,3.583.96,5.141.96,7.389,0,1.183-.105,2.307-.105,3.4a6.83,6.83,0,0,1-4.344-5.7c-.409-2.048-.691-6.237,1.382-5.925A2.528,2.528,0,0,1,14.672,20.836Z" transform="translate(1.781 3.415)" fill="#e8edfc"/>
      <path id="Shape-9" d="M41.51,25.918a6.8,6.8,0,0,1-4.344,5.7c0-1.089-.105-2.213-.105-3.4,0-2.061.656-3.911.948-7.412a2.693,2.693,0,0,1,2.119-.82c2.077-.311,1.8,3.876,1.382,5.925Z" transform="translate(6.254 3.415)" fill="#e8edfc"/>
      <path id="Shape-10" d="M42.1,18.981c0,5.956-1.1,8.294-1.1,10.949,0,3.658.974,6.719-2.986,10.316-3.981,3.618-3.981,7.225-7.974,7.225H26.061c-3.993,0-3.993-3.607-7.974-7.225C14.132,36.654,15.1,33.6,15.1,29.93c0-2.864-1.1-4.63-1.1-10.9C14.285,15.738,15.281,10,18.59,10c4.063,0,4.637.867,7.705,1.1,5.492.511,6.17-1.1,11.218-1.1,3.255,0,4.274,5.527,4.59,8.981Z" transform="translate(2.312 1.71)" fill="#fff"/>
      <path id="Shape-11" d="M40.274,18.981C39.958,15.527,38.939,10,35.684,10a18.885,18.885,0,0,0-2.611.171c2.543.923,3.4,5.7,3.689,8.81,0,5.956-1.1,8.294-1.1,10.949,0,3.658.974,6.719-2.986,10.316-3.981,3.618-3.981,7.225-7.974,7.225h3.513c3.993,0,3.993-3.607,7.974-7.225,3.96-3.6,2.986-6.658,2.986-10.316,0-2.655,1.1-4.993,1.1-10.949Z" transform="translate(4.141 1.71)" fill="#673ab7"/>
    </g>
    <g id="Icons_copy_2" transform="translate(1.241 1.171)">
      <path id="Shape-12" d="M19.274,23.324c-3.265-5.164-5.468-13.058-3.841-18.97A4.459,4.459,0,0,1,14.614,4H14.6a4.008,4.008,0,0,1-1.733-2,8.548,8.548,0,0,0-.948,2.354c-1.626,5.912.576,13.8,3.841,18.97a1.159,1.159,0,0,1,.4.246,2.8,2.8,0,0,0-1.749-.5c-2.073-.311-1.79,3.877-1.382,5.925a6.83,6.83,0,0,0,4.344,5.7v-.059a8.34,8.34,0,0,0,3.089,6.979c.212.192.406.384.6.576v7.82c-8.718,8.38-8.046,4.583-14.734,8.3-1.648.918-4.809,2.7-6.259,3.429,6.323,3.954,19.609,5.972,32.565,5.766-11.786-.169-23.3-2.169-29.052-5.766,1.45-.725,4.611-2.511,6.261-3.429,6.689-3.721,6.016.075,14.734-8.3V42.19c-.191-.192-.385-.384-.6-.576a8.34,8.34,0,0,1-3.089-6.979v.059a6.257,6.257,0,0,1-3.413-2.86c0,.192-.011.388-.019.595.008-.2.014-.4.018-.595a7.433,7.433,0,0,1-.93-2.843c-.409-2.048-.691-6.237,1.382-5.925Zm-2.772.359c-.048-.481-.08-1.225-.1-1.922.016.7.05,1.337.094,1.922Zm-.109-2.416c0-.351-.009-.655-.009-.871,0,.3,0,.588.007.871Zm.125,2.624V23.9a2.29,2.29,0,0,0-.256-.254,2.907,2.907,0,0,1,.254.247Z" transform="translate(-0.07 0.342)" fill="#fff"/>
      <path id="Shape-13" d="M16.076,4.648a5.919,5.919,0,0,0,2.663.189C22.321,4.324,23.153,2.1,21.9.1,20.515.053,19.273.022,18.329,0c.022.033.032.067.053.1,1.149,1.821.533,3.82-2.306,4.547Z" transform="translate(2.667 0)" fill="#fff"/>
    </g>
    <path id="Shape-14" d="M12.19,12.093l-2.328.252c-.351-3.175-.082-7.171,1.553-9.9l1.949,1.3C12.1,5.857,11.9,9.486,12.19,12.093Z" transform="translate(1.651 0.418)" fill="#fff"/>
    <g id="Group_3" transform="translate(0.07 0)">
      <path id="Shape-15" d="M.62,64.249c5.717,3.577,15.668,5.127,22.416,5.669h.011c11.053.885,30.263.137,39.542-5.67a1.171,1.171,0,0,0-.1-2.041c-.986-.489-4.006-2.145-5.5-3-7.788-4.538-6.252-.1-14.852-8.2V44.207c2.231-2.108,3.521-3.974,3.67-7.211a8,8,0,0,0,4.353-6.323c.279-1.405.937-5.738-1.225-7,1.317-1.518,2.57-4.094,2.57-8.454,0-3.238-.857-5.583-2.549-6.97A5.822,5.822,0,0,0,45.5,6.977c-.666-2.588-3.461-4.7-7.759-5.771C33.562.16,22.712.006,22.252,0a1.171,1.171,0,0,0-.994,1.814,2.266,2.266,0,0,1,.315,1.7c-.259.656-1.21,1.016-1.963,1.2-3.456.865-4.367-1.324-4.464-1.588a1.171,1.171,0,0,0-2.218.752c.525,1.571,2.717,4.241,7.251,3.108,3.064-.767,4.09-2.65,3.756-4.611,3.254.087,10.265.351,13.239,1.1,3.73.933,6.139,2.786,6.139,4.72a1.178,1.178,0,0,0,1.391,1.15c3.41-.262,4.464,2.466,4.464,5.876,0,4.176-1.273,6.267-2.342,7.3,0-.3.008-.651,0-.752-.774-8.312-3.56-10.056-5.76-10.056-4.853,0-4.972,1.171-9.463,1.171-4.471,0-4.637-1.171-9.463-1.171-3.032,0-4.979,3.185-5.666,9.3a22.634,22.634,0,0,1-2.635-8.5,1.194,1.194,0,0,0-1.262-1.035,1.151,1.151,0,0,0-1.066,1.288A24.574,24.574,0,0,0,15.186,23.42c-2.81.258-2.68,4.493-2.143,7.25A8.024,8.024,0,0,0,17.4,36.992c.148,3.211,1.411,5.072,3.67,7.212V51.02c-8.657,8.144-7.013,3.623-14.843,8.187-1.487.849-4.527,2.515-5.5,3a1.171,1.171,0,0,0-.1,2.041Zm55.2-3.007c1.207.691,2.433,1.363,3.664,2.028a52.554,52.554,0,0,1-14.56,3.785,17.486,17.486,0,0,0,3.916-8.474c2.023.686,2.957.32,6.98,2.662ZM47.862,30.276a1.339,1.339,0,0,0-.02.153,5.9,5.9,0,0,1-2.069,3.849c-.167-3.738.459-4.224.868-8.266a1.9,1.9,0,0,1,1.187-.251c.347.459.433,2.5.028,4.512Zm-32.484.15a1.26,1.26,0,0,0-.02-.149c-.425-2.126-.3-4.3.057-4.538a2.371,2.371,0,0,1,1.159.24c.377,4.2,1.046,4.361.869,8.3a5.894,5.894,0,0,1-2.071-3.857Zm4.347,5.786c0-1.018.105-2.214.105-3.4,0-3.193-1.094-4.627-1.1-10.85.345-3.838,1.42-7.913,3.412-7.913,4.472,0,4.637,1.171,9.463,1.171,4.851,0,4.971-1.171,9.463-1.171,1.662,0,2.971,3.045,3.418,7.869,0,6.865-1.3,7.111-1.046,12.719.146,3.162.066,5.146-2.658,7.621-4.068,3.7-3.982,6.92-7.186,6.92-5.554,0-5.5.489-7.728-2.781A23.994,23.994,0,0,0,23,42.826c-2.1-2.1-3.287-3.192-3.279-6.617Zm1.341,17.978v2.018a1.171,1.171,0,1,0,2.342,0V46.963c1.726,2.452,2.826,4.56,6.206,4.56,6.454,0,6.622.516,10.188-4.56v9.244a1.171,1.171,0,0,0,2.342,0V54.189a26.652,26.652,0,0,0,4.5,3.412c-.43,2.673-1.9,8.4-6.685,9.985a105.751,105.751,0,0,1-16.69,0c-4.8-1.577-6.268-7.31-6.7-9.986A26.712,26.712,0,0,0,21.066,54.189ZM7.392,61.235c4-2.33,4.957-1.971,6.972-2.657a17.482,17.482,0,0,0,3.916,8.474A52.586,52.586,0,0,1,3.72,63.269C4.952,62.6,6.179,61.928,7.392,61.235Z" transform="translate(-0.07 0)" fill="#673ab7"/>
      <path id="Shape-16" d="M11.032,8.142A1.171,1.171,0,1,1,12.2,6.971,1.171,1.171,0,0,1,11.032,8.142Z" transform="translate(1.604 0.992)" fill="#673ab7"/>
    </g>
  </g>
</svg>
